<svg xmlns="http://www.w3.org/2000/svg" width="100" height="100" viewBox="0 0 100 100" fill="none">
  <circle cx="50" cy="50" r="44" stroke="#1a1918" stroke-width="1.2" />
  <line x1="50" y1="8" x2="50" y2="12" stroke="#1a1918" stroke-width="1" />
  <line x1="71" y1="13.6269" x2="69" y2="17.091" stroke="#1a1918" stroke-width="0.6" />
  <line x1="86.3731" y1="29" x2="82.909" y2="31" stroke="#1a1918" stroke-width="0.6" />
  <line x1="92" y1="50" x2="88" y2="50" stroke="#1a1918" stroke-width="1" />
  <line x1="86.3731" y1="71" x2="82.909" y2="69" stroke="#1a1918" stroke-width="0.6" />
  <line x1="71" y1="86.3731" x2="69" y2="82.909" stroke="#1a1918" stroke-width="0.6" />
  <line x1="50" y1="92" x2="50" y2="88" stroke="#1a1918" stroke-width="1" />
  <line x1="29" y1="86.3731" x2="31" y2="82.909" stroke="#1a1918" stroke-width="0.6" />
  <line x1="13.6269" y1="71" x2="17.091" y2="69" stroke="#1a1918" stroke-width="0.6" />
  <line x1="8" y1="50" x2="12" y2="50" stroke="#1a1918" stroke-width="1" />
  <line x1="13.6269" y1="29" x2="17.091" y2="31" stroke="#1a1918" stroke-width="0.6" />
  <line x1="29" y1="13.6269" x2="31" y2="17.091" stroke="#1a1918" stroke-width="0.6" />
  <path d="M72 26A32 32 0 1 0 72 74" stroke="#1a1918" stroke-width="6" stroke-linecap="square" />
  <path d="M50 14q2 -3 4 -1M50 14q-2 -3 -4 -1" stroke="#8a6a3d" stroke-width="0.9" stroke-linecap="round" />
  <circle cx="50" cy="50" r="1.4" fill="#1a1918" />
</svg>
